{
  "accessors": [
    {
      "bufferView": 2,
      "componentType": 5126,
      "count": 20164,
      "max": [
        0.998598575592041,
        1.066960096359253,
        0.893889844417572
      ],
      "min": [
        -0.9985986351966858,
        -0.5735321044921875,
        -0.9451022148132324
      ],
      "type": "VEC3"
    },
    {
      "bufferView": 2,
      "byteOffset": 241968,
      "componentType": 5126,
      "count": 20164,
      "max": [
        0.9999882578849792,
        1.0,
        0.9999864101409912
      ],
      "min": [
        -0.9999881982803345,
        -1.0,
        -0.9999640583992004
      ],
      "type": "VEC3"
    },
    {
      "bufferView": 1,
      "componentType": 5126,
      "count": 20164,
      "max": [
        0.7500001192092896,
        0.8750001192092896
      ],
      "min": [
        0.25,
        0.3749999701976776
      ],
      "type": "VEC2"
    },
    {
      "bufferView": 0,
      "componentType": 5125,
      "count": 30336,
      "type": "SCALAR"
    },
    {
      "bufferView": 2,
      "byteOffset": 483936,
      "componentType": 5126,
      "count": 192,
      "max": [
        0.4289415180683136,
        -0.5735319256782532,
        0.23802578449249268
      ],
      "min": [
        -0.4289415180683136,
        -0.5735320448875427,
        -0.1920139640569687
      ],
      "type": "VEC3"
    },
    {
      "bufferView": 2,
      "byteOffset": 486240,
      "componentType": 5126,
      "count": 192,
      "max": [
        4.464839548745658e-06,
        -1.0,
        1.956079586307169e-06
      ],
      "min": [
        -4.47888078269898e-06,
        -1.0,
        -1.9414410417084582e-06
      ],
      "type": "VEC3"
    },
    {
      "bufferView": 1,
      "byteOffset": 161312,
      "componentType": 5126,
      "count": 192,
      "max": [
        0.5373183488845825,
        0.8348676562309265
      ],
      "min": [
        0.4759789705276489,
        0.8213822245597839
      ],
      "type": "VEC2"
    },
    {
      "bufferView": 0,
      "byteOffset": 121344,
      "componentType": 5125,
      "count": 288,
      "type": "SCALAR"
    },
    {
      "bufferView": 2,
      "byteOffset": 488544,
      "componentType": 5126,
      "count": 65532,
      "max": [
        1.0,
        1.0331608057022095,
        0.8113630414009094
      ],
      "min": [
        -0.9999868869781494,
        -1.4409074783325195,
        -0.6069403290748596
      ],
      "type": "VEC3"
    },
    {
      "bufferView": 2,
      "byteOffset": 1274928,
      "componentType": 5126,
      "count": 65532,
      "max": [
        1.0,
        0.9999960064888,
        0.9982115626335144
      ],
      "min": [
        -0.9999997615814209,
        -0.9999998211860657,
        -0.999989926815033
      ],
      "type": "VEC3"
    },
    {
      "bufferView": 1,
      "byteOffset": 162848,
      "componentType": 5126,
      "count": 65532,
      "max": [
        0.75,
        0.8752822875976563
      ],
      "min": [
        0.24977681040763855,
        0.3749999701976776
      ],
      "type": "VEC2"
    },
    {
      "bufferView": 0,
      "byteOffset": 122496,
      "componentType": 5125,
      "count": 98298,
      "type": "SCALAR"
    },
    {
      "bufferView": 2,
      "byteOffset": 2061312,
      "componentType": 5126,
      "count": 65532,
      "max": [
        1.0000001192092896,
        1.0331754684448242,
        0.8173933029174805
      ],
      "min": [
        -1.0000001192092896,
        -1.4409167766571045,
        -0.6072698831558228
      ],
      "type": "VEC3"
    },
    {
      "bufferView": 2,
      "byteOffset": 2847696,
      "componentType": 5126,
      "count": 65532,
      "max": [
        1.0,
        1.0,
        0.9992814660072327
      ],
      "min": [
        -1.0,
        -0.999998927116394,
        -0.9998968839645386
      ],
      "type": "VEC3"
    },
    {
      "bufferView": 1,
      "byteOffset": 687104,
      "componentType": 5126,
      "count": 65532,
      "max": [
        0.7500000596046448,
        0.8750001192092896
      ],
      "min": [
        0.25,
        0.3749999701976776
      ],
      "type": "VEC2"
    },
    {
      "bufferView": 0,
      "byteOffset": 515688,
      "componentType": 5125,
      "count": 98298,
      "type": "SCALAR"
    },
    {
      "bufferView": 2,
      "byteOffset": 3634080,
      "componentType": 5126,
      "count": 35704,
      "max": [
        0.9292108416557312,
        0.9432100057601929,
        0.592787504196167
      ],
      "min": [
        -0.9999842047691345,
        -1.4408950805664063,
        -0.5364105701446533
      ],
      "type": "VEC3"
    },
    {
      "bufferView": 2,
      "byteOffset": 4062528,
      "componentType": 5126,
      "count": 35704,
      "max": [
        0.9999982118606567,
        0.5282952189445496,
        0.9501447081565857
      ],
      "min": [
        -0.998223602771759,
        -0.9999916553497314,
        -0.9492619037628174
      ],
      "type": "VEC3"
    },
    {
      "bufferView": 1,
      "byteOffset": 1211360,
      "componentType": 5126,
      "count": 35704,
      "max": [
        0.6403123140335083,
        0.7927682995796204
      ],
      "min": [
        0.334338903427124,
        0.48548293113708496
      ],
      "type": "VEC2"
    },
    {
      "bufferView": 0,
      "byteOffset": 908880,
      "componentType": 5125,
      "count": 53556,
      "type": "SCALAR"
    },
    {
      "bufferView": 2,
      "byteOffset": 4490976,
      "componentType": 5126,
      "count": 31232,
      "max": [
        1.7285560369491577,
        1.341762661933899,
        1.0230695009231567
      ],
      "min": [
        -1.7285557985305786,
        -1.300987958908081,
        -0.8290595412254333
      ],
      "type": "VEC3"
    },
    {
      "bufferView": 2,
      "byteOffset": 4865760,
      "componentType": 5126,
      "count": 31232,
      "max": [
        0.9999942183494568,
        0.9991848468780518,
        1.0
      ],
      "min": [
        -0.999994158744812,
        -0.9995846748352051,
        -0.9993563294410706
      ],
      "type": "VEC3"
    },
    {
      "bufferView": 1,
      "byteOffset": 1496992,
      "componentType": 5126,
      "count": 31232,
      "max": [
        0.7500001192092896,
        0.8750001192092896
      ],
      "min": [
        0.375,
        0.375
      ],
      "type": "VEC2"
    },
    {
      "bufferView": 0,
      "byteOffset": 1123104,
      "componentType": 5125,
      "count": 46848,
      "type": "SCALAR"
    },
    {
      "bufferView": 2,
      "byteOffset": 5240544,
      "componentType": 5126,
      "count": 9187,
      "max": [
        1.0000001192092896,
        1.251953363418579,
        -0.7076610326766968
      ],
      "min": [
        -1.0000001192092896,
        -1.2255263328552246,
        -1.7829103469848633
      ],
      "type": "VEC3"
    },
    {
      "bufferView": 2,
      "byteOffset": 5350788,
      "componentType": 5126,
      "count": 9187,
      "max": [
        1.0,
        0.9991761445999146,
        0.6060959100723267
      ],
      "min": [
        -1.0,
        -0.997351884841919,
        -0.999989926815033
      ],
      "type": "VEC3"
    },
    {
      "bufferView": 1,
      "byteOffset": 1746848,
      "componentType": 5126,
      "count": 9187,
      "max": [
        0.3965010941028595,
        0.875
      ],
      "min": [
        0.25,
        0.375
      ],
      "type": "VEC2"
    },
    {
      "bufferView": 0,
      "byteOffset": 1310496,
      "componentType": 5125,
      "count": 13824,
      "type": "SCALAR"
    },
    {
      "bufferView": 2,
      "byteOffset": 5461032,
      "componentType": 5126,
      "count": 12782,
      "max": [
        1.0000001192092896,
        0.5949393510818481,
        -1.7408736944198608
      ],
      "min": [
        -1.0000001192092896,
        -1.3214080333709717,
        -2.27397084236145
      ],
      "type": "VEC3"
    },
    {
      "bufferView": 2,
      "byteOffset": 5614416,
      "componentType": 5126,
      "count": 12782,
      "max": [
        1.0,
        0.9996107220649719,
        0.9863138794898987
      ],
      "min": [
        -1.0,
        -0.9958707094192505,
        -0.9995579123497009
      ],
      "type": "VEC3"
    },
    {
      "bufferView": 1,
      "byteOffset": 1820344,
      "componentType": 5126,
      "count": 12782,
      "max": [
        0.37500008940696716,
        0.833333432674408
      ],
      "min": [
        0.2916666269302368,
        0.4166666865348816
      ],
      "type": "VEC2"
    },
    {
      "bufferView": 0,
      "byteOffset": 1365792,
      "componentType": 5125,
      "count": 19200,
      "type": "SCALAR"
    },
    {
      "bufferView": 2,
      "byteOffset": 5767800,
      "componentType": 5126,
      "count": 19968,
      "max": [
        2.637755870819092,
        0.7550948858261108,
        0.95645672082901
      ],
      "min": [
        -2.637755870819092,
        -0.7361325621604919,
        0.2189539223909378
      ],
      "type": "VEC3"
    },
    {
      "bufferView": 2,
      "byteOffset": 6007416,
      "componentType": 5126,
      "count": 19968,
      "max": [
        0.9998852610588074,
        0.9986496567726135,
        0.9999318718910217
      ],
      "min": [
        -0.9998852014541626,
        -0.9985023140907288,
        -0.999929666519165
      ],
      "type": "VEC3"
    },
    {
      "bufferView": 1,
      "byteOffset": 1922600,
      "componentType": 5126,
      "count": 19968,
      "max": [
        0.6144741773605347,
        0.7411704063415527
      ],
      "min": [
        0.514532208442688,
        0.5088299512863159
      ],
      "type": "VEC2"
    },
    {
      "bufferView": 0,
      "byteOffset": 1442592,
      "componentType": 5125,
      "count": 29952,
      "type": "SCALAR"
    }
  ],
  "asset": {
    "extras": {
      "author": "dimspur18 (https://sketchfab.com/dimspur18)",
      "license": "CC-BY-4.0 (http://creativecommons.org/licenses/by/4.0/)",
      "source": "https://sketchfab.com/3d-models/stumble-d0cf34d83653470dbecbeab33a495231",
      "title": "Stumble"
    },
    "generator": "Sketchfab-15.17.0",
    "version": "2.0"
  },
  "bufferViews": [
    {
      "buffer": 0,
      "byteLength": 1562400,
      "name": "floatBufferViews",
      "target": 34963
    },
    {
      "buffer": 0,
      "byteLength": 2082344,
      "byteOffset": 1562400,
      "byteStride": 8,
      "name": "floatBufferViews",
      "target": 34962
    },
    {
      "buffer": 0,
      "byteLength": 6247032,
      "byteOffset": 3644744,
      "byteStride": 12,
      "name": "floatBufferViews",
      "target": 34962
    }
  ],
  "buffers": [
    {
      "byteLength": 9891776,
      "uri": "scene.bin"
    }
  ],
  "materials": [
    {
      "doubleSided": true,
      "name": "Material.003",
      "pbrMetallicRoughness": {
        "baseColorFactor": [
          0.991102,
          0.617207,
          0.270498,
          1.0
        ],
        "metallicFactor": 0.0,
        "roughnessFactor": 0.8498112100999999
      }
    },
    {
      "doubleSided": true,
      "name": "Material.007",
      "pbrMetallicRoughness": {
        "baseColorFactor": [
          0.0,
          0.0,
          0.0,
          1.0
        ],
        "metallicFactor": 0.0
      }
    },
    {
      "doubleSided": true,
      "name": "Material.002",
      "pbrMetallicRoughness": {
        "baseColorFactor": [
          0.191202,
          0.597202,
          0.0761854,
          1.0
        ],
        "metallicFactor": 0.0,
        "roughnessFactor": 0.8941738341
      }
    },
    {
      "doubleSided": true,
      "name": "Material.006",
      "pbrMetallicRoughness": {
        "baseColorFactor": [
          0.921582,
          0.201556,
          0.0202886,
          1.0
        ],
        "metallicFactor": 0.0,
        "roughnessFactor": 0.9236279879
      }
    },
    {
      "doubleSided": true,
      "name": "Material.005",
      "pbrMetallicRoughness": {
        "baseColorFactor": [
          0.00651209,
          0.114435,
          0.822786,
          1.0
        ],
        "metallicFactor": 0.0,
        "roughnessFactor": 0.9681061728
      }
    },
    {
      "doubleSided": true,
      "name": "Material.008",
      "pbrMetallicRoughness": {
        "baseColorFactor": [
          0.0,
          0.0,
          0.0,
          1.0
        ],
        "metallicFactor": 0.0
      }
    }
  ],
  "meshes": [
    {
      "name": "Cube_Material.003_0",
      "primitives": [
        {
          "attributes": {
            "NORMAL": 1,
            "POSITION": 0,
            "TEXCOORD_0": 2
          },
          "indices": 3,
          "material": 0,
          "mode": 4
        }
      ]
    },
    {
      "name": "Cube_Material.007_0",
      "primitives": [
        {
          "attributes": {
            "NORMAL": 5,
            "POSITION": 4,
            "TEXCOORD_0": 6
          },
          "indices": 7,
          "material": 1,
          "mode": 4
        }
      ]
    },
    {
      "name": "Cube.001_Material.002_0",
      "primitives": [
        {
          "attributes": {
            "NORMAL": 9,
            "POSITION": 8,
            "TEXCOORD_0": 10
          },
          "indices": 11,
          "material": 2,
          "mode": 4
        }
      ]
    },
    {
      "name": "Cube.001_Material.002_0",
      "primitives": [
        {
          "attributes": {
            "NORMAL": 13,
            "POSITION": 12,
            "TEXCOORD_0": 14
          },
          "indices": 15,
          "material": 2,
          "mode": 4
        }
      ]
    },
    {
      "name": "Cube.001_Material.002_0",
      "primitives": [
        {
          "attributes": {
            "NORMAL": 17,
            "POSITION": 16,
            "TEXCOORD_0": 18
          },
          "indices": 19,
          "material": 2,
          "mode": 4
        }
      ]
    },
    {
      "name": "Cube.002_Material.006_0",
      "primitives": [
        {
          "attributes": {
            "NORMAL": 21,
            "POSITION": 20,
            "TEXCOORD_0": 22
          },
          "indices": 23,
          "material": 3,
          "mode": 4
        }
      ]
    },
    {
      "name": "Cube.002_Material.005_0",
      "primitives": [
        {
          "attributes": {
            "NORMAL": 25,
            "POSITION": 24,
            "TEXCOORD_0": 26
          },
          "indices": 27,
          "material": 4,
          "mode": 4
        }
      ]
    },
    {
      "name": "Cube.002_Material.008_0",
      "primitives": [
        {
          "attributes": {
            "NORMAL": 29,
            "POSITION": 28,
            "TEXCOORD_0": 30
          },
          "indices": 31,
          "material": 5,
          "mode": 4
        }
      ]
    },
    {
      "name": "Cube.002_Material.003_0",
      "primitives": [
        {
          "attributes": {
            "NORMAL": 33,
            "POSITION": 32,
            "TEXCOORD_0": 34
          },
          "indices": 35,
          "material": 0,
          "mode": 4
        }
      ]
    }
  ],
  "nodes": [
    {
      "children": [
        1
      ],
      "matrix": [
        1.0,
        0.0,
        0.0,
        0.0,
        0.0,
        2.220446049250313e-16,
        -1.0,
        0.0,
        0.0,
        1.0,
        2.220446049250313e-16,
        0.0,
        0.0,
        0.0,
        0.0,
        1.0
      ],
      "name": "Sketchfab_model"
    },
    {
      "children": [
        2
      ],
      "matrix": [
        0.009999999776482582,
        0.0,
        0.0,
        0.0,
        0.0,
        0.0,
        0.009999999776482582,
        0.0,
        0.0,
        -0.009999999776482582,
        0.0,
        0.0,
        0.0,
        0.0,
        0.0,
        1.0
      ],
      "name": "5977703a030c4cc3846fd4b6ff2ccfad.fbx"
    },
    {
      "children": [
        3,
        6,
        10
      ],
      "name": "RootNode"
    },
    {
      "children": [
        4,
        5
      ],
      "matrix": [
        100.0,
        0.0,
        0.0,
        0.0,
        0.0,
        -1.629206793918314e-05,
        -99.99999999999868,
        0.0,
        0.0,
        99.99999999999868,
        -1.629206793918314e-05,
        0.0,
        0.0,
        141.1843719482422,
        0.0,
        1.0
      ],
      "name": "Cube"
    },
    {
      "mesh": 0,
      "name": "Cube_Material.003_0"
    },
    {
      "mesh": 1,
      "name": "Cube_Material.007_0"
    },
    {
      "children": [
        7,
        8,
        9
      ],
      "matrix": [
        107.35014343261719,
        0.0,
        0.0,
        0.0,
        0.0,
        -1.748955830085254e-05,
        -107.35014343261577,
        0.0,
        0.0,
        107.35014343261577,
        -1.748955830085254e-05,
        0.0,
        0.0,
        238.0723876953125,
        0.0,
        1.0
      ],
      "name": "Cube.001"
    },
    {
      "mesh": 2,
      "name": "Cube.001_Material.002_0"
    },
    {
      "mesh": 3,
      "name": "Cube.001_Material.002_0"
    },
    {
      "mesh": 4,
      "name": "Cube.001_Material.002_0"
    },
    {
      "children": [
        11,
        12,
        13,
        14
      ],
      "matrix": [
        100.0,
        0.0,
        0.0,
        0.0,
        0.0,
        -9.465981461331957e-06,
        -58.10177993774337,
        0.0,
        0.0,
        99.99999999999868,
        -1.629206793918314e-05,
        0.0,
        0.0,
        -55.50153732299805,
        -30.511754989624023,
        1.0
      ],
      "name": "Cube.002"
    },
    {
      "mesh": 5,
      "name": "Cube.002_Material.006_0"
    },
    {
      "mesh": 6,
      "name": "Cube.002_Material.005_0"
    },
    {
      "mesh": 7,
      "name": "Cube.002_Material.008_0"
    },
    {
      "mesh": 8,
      "name": "Cube.002_Material.003_0"
    }
  ],
  "scene": 0,
  "scenes": [
    {
      "name": "Sketchfab_Scene",
      "nodes": [
        0
      ]
    }
  ]
}
