{
  "accessors": [
    {
      "bufferView": 2,
      "componentType": 5126,
      "count": 1820,
      "max": [
        -1.0409400463104248,
        -61.38690185546875,
        6.697010040283203
      ],
      "min": [
        -6.438600063323975,
        -65.60310363769531,
        2.622600050017354e-06
      ],
      "type": "VEC3"
    },
    {
      "bufferView": 2,
      "byteOffset": 21840,
      "componentType": 5126,
      "count": 1820,
      "max": [
        1.0,
        1.0,
        1.0
      ],
      "min": [
        -1.0,
        -1.0,
        -1.0
      ],
      "type": "VEC3"
    },
    {
      "bufferView": 1,
      "componentType": 5126,
      "count": 1820,
      "max": [
        0.9960939884185791,
        0.9960939884185791
      ],
      "min": [
        0.008056639693677425,
        0.0038471200969070196
      ],
      "type": "VEC2"
    },
    {
      "bufferView": 0,
      "componentType": 5125,
      "count": 7836,
      "type": "SCALAR"
    }
  ],
  "asset": {
    "extras": {
      "author": "BRUNO 365 (https://sketchfab.com/BRUNO365)",
      "license": "CC-BY-4.0 (http://creativecommons.org/licenses/by/4.0/)",
      "source": "https://sketchfab.com/3d-models/shark-6970930b02bd414b94c8171be1ddcb80",
      "title": "Shark"
    },
    "generator": "Sketchfab-16.95.0",
    "version": "2.0"
  },
  "bufferViews": [
    {
      "buffer": 0,
      "byteLength": 31344,
      "name": "floatBufferViews",
      "target": 34963
    },
    {
      "buffer": 0,
      "byteLength": 14560,
      "byteOffset": 31344,
      "byteStride": 8,
      "name": "floatBufferViews",
      "target": 34962
    },
    {
      "buffer": 0,
      "byteLength": 43680,
      "byteOffset": 45904,
      "byteStride": 12,
      "name": "floatBufferViews",
      "target": 34962
    }
  ],
  "buffers": [
    {
      "byteLength": 89584,
      "uri": "scene.bin"
    }
  ],
  "images": [
    {
      "uri": "textures/Shark1Mtl_baseColor.png"
    }
  ],
  "materials": [
    {
      "doubleSided": true,
      "emissiveTexture": {
        "index": 0
      },
      "name": "Shark1Mtl",
      "pbrMetallicRoughness": {
        "baseColorTexture": {
          "index": 0
        },
        "metallicFactor": 0.0
      }
    }
  ],
  "meshes": [
    {
      "name": "Object_0",
      "primitives": [
        {
          "attributes": {
            "NORMAL": 1,
            "POSITION": 0,
            "TEXCOORD_0": 2
          },
          "indices": 3,
          "material": 0,
          "mode": 4
        }
      ]
    }
  ],
  "nodes": [
    {
      "children": [
        1
      ],
      "matrix": [
        -1.0,
        1.8847042326797236e-07,
        -1.6081223368182204e-16,
        0.0,
        -1.6081226229577292e-16,
        -1.7074502062153007e-16,
        1.0,
        0.0,
        1.8847042326797236e-07,
        1.0,
        1.7074505040003212e-16,
        0.0,
        0.0,
        0.0,
        0.0,
        1.0
      ],
      "name": "Sketchfab_model"
    },
    {
      "children": [
        2
      ],
      "name": "shark.obj.cleaner.materialmerger.gles"
    },
    {
      "mesh": 0,
      "name": "Object_2"
    }
  ],
  "samplers": [
    {
      "magFilter": 9729,
      "minFilter": 9987,
      "wrapS": 10497,
      "wrapT": 10497
    }
  ],
  "scene": 0,
  "scenes": [
    {
      "name": "Sketchfab_Scene",
      "nodes": [
        0
      ]
    }
  ],
  "textures": [
    {
      "sampler": 0,
      "source": 0
    }
  ]
}
